Patient4_TMGait_0pt4_02_right_14_GRF.mot
version=1
nRows=26
nColumns=19
inDegrees=no
endheader
time	F1x	F1y	F1z	M1x	M1y	M1z	F2x	F2y	F2z	M2x	M2y	M2z	EC1x	EC1y	EC1z	EC2x	EC2y	EC2z
18.03	13.7888	722.7037	67.0413	-235.7524	-62.9589	770.3354	3.2445	9.9296	-2.2298	3.3607	2.0219	9.3956	-0.0592	0.0182	-0.0073	-0.0462	0.0165	0.9585
18.0433	13.5612	725.0727	63.1171	-236.3943	-59.1745	769.9675	2.2588	7.4007	-1.5764	2.5246	1.4942	7.1082	-0.0592	0.0182	-0.0073	-0.0462	0.0165	0.9585
18.0566	13.4364	729.2873	59.772	-237.5563	-55.8215	771.3621	1.3185	5.3007	-1.0176	1.8354	1.0647	5.2446	-0.0592	0.0182	-0.0073	-0.0462	0.0165	0.9585
18.0699	13.3767	735.4071	57.2776	-239.2579	-53.1938	774.7345	0.50859	3.7517	-0.5915	1.3314	0.75404	3.899	-0.0592	0.0182	-0.0073	-0.0462	0.0165	0.9585
18.0831	13.3719	743.1673	55.7125	-241.4206	-51.4035	779.8896	-0.11087	2.701	-0.29769	0.99639	0.54889	2.9917	-0.0592	0.0182	-0.0073	-0.0462	0.0165	0.9585
18.0964	13.4362	752.0384	55.0246	-243.8886	-50.4272	786.2847	-0.56479	2.0729	-0.12701	0.801	0.44709	2.4699	-0.0592	0.0182	-0.0073	-0.0462	0.0165	0.9585
18.1097	13.6383	761.3359	55.0461	-246.4671	-50.1068	793.158	-0.87051	1.7257	-0.056598	0.69613	0.43123	2.1786	-0.0592	0.0182	-0.0073	-0.0462	0.0165	0.9585
18.123	14.0643	770.3256	55.5526	-248.9499	-50.2109	799.6873	-1.089	1.5102	-0.066401	0.62863	0.49458	1.9652	-0.0592	0.0182	-0.0073	-0.0462	0.0165	0.9585
18.1363	14.8006	778.2524	56.2955	-251.1242	-50.4719	805.0258	-1.2628	1.295	-0.13189	0.54882	0.61888	1.7006	-0.0592	0.0182	-0.0073	-0.0462	0.0165	0.9585
18.1496	15.878	784.3801	57.0767	-252.7747	-50.6751	808.3769	-1.406	0.92992	-0.24241	0.4036	0.79008	1.2273	-0.0592	0.0182	-0.0073	-0.0462	0.0165	0.9585
18.1629	17.3019	788.0628	57.716	-253.7072	-50.6307	809.0627	-1.5644	0.28417	-0.38407	0.14547	0.99727	0.42797	-0.0592	0.0182	-0.0073	-0.0462	0.0165	0.9585
18.1761	19.0248	788.8773	58.0753	-253.7855	-50.2081	806.6771	-1.6986	-0.75667	-0.54619	-0.26632	1.2135	-0.83574	-0.0592	0.0182	-0.0073	-0.0462	0.0165	0.9585
18.1894	20.9601	786.7071	58.0608	-252.9527	-49.3376	801.1565	-1.783	-2.2193	-0.70744	-0.84428	1.4038	-2.5909	-0.0592	0.0182	-0.0073	-0.0462	0.0165	0.9585
18.2027	23.0371	781.7244	57.7146	-251.2281	-48.0772	792.7427	-1.7377	-4.0703	-0.83856	-1.5718	1.5063	-4.8079	-0.0592	0.0182	-0.0073	-0.0462	0.0165	0.9585
18.216	25.1959	774.4072	57.1676	-248.7235	-46.5702	782.02	-1.4487	-6.1045	-0.89367	-2.3681	1.428	-7.2442	-0.0592	0.0182	-0.0073	-0.0462	0.0165	0.9585
18.2293	27.4229	765.549	56.6201	-245.6553	-45.0188	769.8765	-0.77392	-7.8904	-0.81411	-3.0645	1.0478	-9.385	-0.0592	0.0182	-0.0073	-0.0462	0.0165	0.9585
18.2426	29.7045	756.1579	56.2448	-242.3175	-43.6036	757.4065	0.46208	-8.7326	-0.51383	-3.3844	0.20292	-10.4024	-0.0592	0.0182	-0.0073	-0.0462	0.0165	0.9585
18.2559	32.056	747.205	56.1734	-239.0057	-42.4622	745.6439	2.3935	-7.5706	0.10681	-2.911	-1.2762	-9.0087	-0.0592	0.0182	-0.0073	-0.0462	0.0165	0.9585
18.2691	34.4697	739.3485	56.4495	-235.9283	-41.6525	735.2935	5.1418	-2.985	1.1528	-1.0829	-3.5523	-3.507	-0.0592	0.0182	-0.0073	-0.0462	0.0165	0.9585
18.2824	36.8866	732.6797	57.0443	-233.1233	-41.1787	726.4897	8.6659	6.7815	2.7054	2.792	-6.7006	8.2084	-0.0592	0.0182	-0.0073	-0.0462	0.0165	0.9585
18.2957	39.2071	726.5747	57.8435	-230.4091	-40.9759	718.6413	12.7109	23.6194	4.8001	9.4581	-10.6504	28.3901	-0.0592	0.0182	-0.0073	-0.0462	0.0165	0.9585
18.309	41.2455	719.7283	58.6585	-227.391	-40.9336	710.5068	16.6731	49.2023	7.3551	19.5668	-15.0514	59.0321	-0.0592	0.0182	-0.0073	-0.0462	0.0165	0.9585
18.3223	42.7962	710.3645	59.2279	-223.5338	-40.8748	700.3608	19.4354	84.3393	10.1044	33.4237	-19.1321	101.0955	-0.0592	0.0182	-0.0073	-0.0462	0.0165	0.9585
18.3356	43.644	696.6758	59.2703	-218.2988	-40.6032	686.4476	19.3295	128.0819	12.4771	50.6383	-21.5625	153.4401	-0.0592	0.0182	-0.0073	-0.0462	0.0165	0.9585
18.3489	43.6382	677.2714	58.5176	-211.2889	-39.9114	667.3854	15.1304	177.4764	13.619	69.9825	-20.8604	212.6484	-0.0592	0.0182	-0.0073	-0.0462	0.0165	0.9585
18.3621	42.7336	651.5709	56.8084	-202.3719	-38.6575	642.5456	7.0287	227.0632	12.7152	89.251	-16.2125	272.3199	-0.0592	0.0182	-0.0073	-0.0462	0.0165	0.9585
